<svg width="153" height="153" viewBox="0 0 153 153" fill="none" xmlns="http://www.w3.org/2000/svg">
<circle cx="76.5" cy="76.5" r="76.5" fill="#0A1A34"/>
<circle cx="76.5" cy="76.5" r="54.5" fill="#4463A9"/>
<path d="M93 50.3333H61C56.5733 50.3333 53 53.88 53 58.2533V87.3466C53 91.72 56.5733 95.2666 61 95.2666H63.0267C65.16 95.2666 67.1867 96.0933 68.68 97.5866L73.24 102.093C75.32 104.147 78.7067 104.147 80.7867 102.093L85.3467 97.5866C86.84 96.0933 88.8933 95.2666 91 95.2666H93C97.4267 95.2666 101 91.72 101 87.3466V58.2533C101 53.88 97.4267 50.3333 93 50.3333ZM77 60.3333C80.44 60.3333 83.2133 63.1066 83.2133 66.5466C83.2133 69.9866 80.44 72.76 77 72.76C73.56 72.76 70.7867 69.96 70.7867 66.5466C70.7867 63.1066 73.56 60.3333 77 60.3333ZM84.1467 85.16H69.8533C67.6933 85.16 66.44 82.76 67.64 80.9733C69.4533 78.28 72.9733 76.4666 77 76.4666C81.0267 76.4666 84.5467 78.28 86.36 80.9733C87.56 82.76 86.28 85.16 84.1467 85.16Z" fill="white"/>
</svg>
