<svg width="174" height="173" viewBox="0 0 174 173" fill="none" xmlns="http://www.w3.org/2000/svg">
<g clip-path="url(#clip0_457_1801)">
<path d="M86.6883 173C40.3946 173.164 -0.209668 135.886 -0.00016944 86.1488C0.214843 36.3238 41.4255 -0.75699 88.5573 0.0107291C134.801 0.761997 175.102 38.8299 173.972 88.6933C172.914 135.711 133.815 173.455 86.6883 173Z" fill="white"/>
<path d="M65.3145 120.362C55.9973 104.438 46.5533 88.5788 37.4125 72.5499C33.1454 65.0647 34.6725 57.0255 40.8141 51.0099C46.7022 45.2411 54.8781 44.1169 62.3595 48.2406C70.6237 52.7976 78.8107 57.5026 87.0252 62.1418C89.5172 62.6354 91.5239 64.1708 93.7127 65.2895C97.8916 67.4226 101.927 67.3678 106.09 65.2456C111.889 62.2899 117.728 59.4219 123.462 56.3401C124.537 55.7643 125.964 54.514 126.935 55.5669C127.966 56.6801 126.488 57.8645 125.761 58.8352C120.093 66.3588 114.409 73.866 108.797 81.428C106.04 85.1405 102.627 87.6082 98.035 88.3978C94.3467 89.0394 91.2152 87.6191 88.1334 85.8479C77.7191 79.8597 67.2772 73.9208 56.4935 67.6749C62.2823 77.1124 67.6135 86.3579 73.1487 95.4883C76.1809 100.495 79.0863 105.578 82.1516 110.568C82.6754 111.424 83.2432 112.274 83.2763 113.332C82.8794 115.016 81.4349 115.772 80.1834 116.611C75.7013 119.617 70.9103 121.618 65.3145 120.362Z" fill="#1D9DF8"/>
<path d="M97.8144 88.0078C104.656 86.8123 107.986 81.378 111.724 76.4975C116.664 70.0596 121.482 63.5285 126.334 57.0248C126.576 56.6958 126.681 56.2626 127.089 55.3304C119.939 58.9661 113.295 62.3495 106.641 65.7275C104.678 66.7255 102.693 67.5426 100.4 67.6084C97.8254 67.6797 95.4933 67.049 93.3046 65.8371C91.1821 64.6581 88.8224 63.8685 87.0197 62.1466C93.3542 57.9516 99.6723 53.7236 106.034 49.5779C111.647 45.9203 117.551 45.4048 123.439 48.7609C129.443 52.1827 132.349 57.5019 132.101 64.4223C132.007 67.0216 131.119 69.4125 129.813 71.6499C119.233 89.7845 108.582 107.881 98.1011 126.076C94.6443 132.08 89.7211 135.552 82.7801 135.425C75.7177 135.294 70.7118 131.631 67.7127 125.27C66.9353 123.624 66.1139 122.001 65.3145 120.367C65.5295 119.907 65.8933 119.671 66.4005 119.742C73.2479 120.696 78.4964 117.636 83.1605 113.123C86.2258 107.031 89.7046 101.163 93.1117 95.2627C94.5506 92.7676 95.4106 89.8832 97.8144 88.0078Z" fill="#0F5CE8"/>
<path d="M97.8144 88.0087C93.6906 95.3678 89.5667 102.727 85.4319 110.086C84.8089 111.194 84.1749 112.301 83.1605 113.119C78.6397 106.593 74.9183 99.5793 70.7945 92.8124C65.6287 84.3236 60.5897 75.7636 55.2695 66.8525C56.9455 67.0061 57.9489 67.7354 58.9744 68.3222C68.7381 73.9101 78.5184 79.476 88.2326 85.1517C91.2262 86.9065 94.3025 88.1074 97.8144 88.0087Z" fill="white"/>
</g>
<defs>
<clipPath id="clip0_457_1801">
<rect width="174" height="173" fill="white"/>
</clipPath>
</defs>
</svg>
