<svg width="112" height="25" viewBox="0 0 112 25" fill="none" xmlns="http://www.w3.org/2000/svg">
<path d="M8.84376 21.2134C7.20729 18.3141 5.56901 15.4148 3.93433 12.5146C3.06363 10.9701 2.18845 9.42925 1.33031 7.87734C0.354702 6.11535 0.285656 4.31358 1.32224 2.57288C2.38214 0.793314 3.96033 -0.103409 6.01467 0.00949099C6.8495 0.0557615 7.60542 0.375954 8.32726 0.802568C10.4121 2.03336 12.5032 3.25306 14.5916 4.47645C14.7333 4.55974 14.8696 4.66061 15.0427 4.66338C15.751 5.09092 16.463 5.52309 17.2207 5.83958C18.2923 6.28748 19.3486 6.15237 20.3726 5.5962C22.1284 4.64117 23.8949 3.70651 25.6641 2.7774C25.8407 2.68485 26.0721 2.46923 26.2272 2.64229C26.402 2.83755 26.1402 3.02911 26.0263 3.18735C24.5046 5.30284 22.9632 7.40167 21.4334 9.51069C21.272 9.73278 21.1178 9.95951 20.9636 10.1872C20.239 11.2569 19.2939 11.9769 18.0197 12.1833C16.5375 12.3193 15.4058 11.4624 14.2204 10.7554C11.828 9.32931 9.432 7.90972 7.04229 6.47996C6.8504 6.36521 6.65133 6.26249 6.3339 6.13016C8.91998 10.6147 11.4289 15.0178 13.9863 19.3913C13.7918 19.755 13.4618 19.9752 13.1461 20.2001C12.1517 20.9053 11.1151 21.4948 9.84269 21.4226C9.49566 21.4013 9.16209 21.3615 8.84376 21.2134Z" fill="#1D9DF8"/>
<path d="M17.535 12.0704C17.7155 11.8865 17.9667 11.8936 18.1928 11.8399C19.2197 11.597 19.8659 10.8719 20.4593 10.0932C22.2147 7.7921 23.9601 5.48486 25.7092 3.1785C25.7253 3.1565 25.7289 3.1257 25.7423 3.08874C25.5769 3.03947 25.4643 3.15474 25.3437 3.21546C23.5624 4.11565 21.7705 4.99561 20.0089 5.93276C18.5253 6.72208 17.1319 6.51705 15.7484 5.71981C15.415 5.52798 15.0673 5.36079 14.7277 5.1804C14.641 5.13464 14.5204 5.10296 14.608 4.96217C16.3132 3.84022 18.0239 2.72532 19.7238 1.59458C21.2145 0.602872 22.7813 0.409282 24.3981 1.21796C26.0444 2.04072 26.9131 3.41609 26.9962 5.22615C27.0346 6.05419 26.7781 6.83911 26.3491 7.56595C23.3864 12.5852 20.3968 17.5895 17.4849 22.6369C15.9727 25.2574 12.5157 25.7458 10.3823 23.8645C10.0016 23.5283 9.69144 23.1359 9.45459 22.6924C9.10335 22.0333 8.76998 21.3645 8.42857 20.7002C8.71189 20.5893 8.96303 20.7723 9.23473 20.7917C10.5611 20.8867 11.6514 20.335 12.6837 19.6178C12.9822 19.4101 13.2441 19.1523 13.5229 18.9182C13.7079 18.3586 14.1039 17.9151 14.3845 17.4065C15.3113 15.7249 16.2802 14.0662 17.2213 12.3925C17.2946 12.2605 17.316 12.0678 17.535 12.0704Z" fill="#0F5CE8"/>
<path d="M39.8963 5.01219L39.0955 6.53627L37.1811 10.1941L35.2668 6.53627L34.466 5.01219H32.7143L33.5151 6.53627L37.1811 13.547L40.8472 6.53627L41.648 5.01219H39.8963Z" fill="#102438"/>
<path d="M44.2306 6.53627H50.6243V5.01219H44.2306C42.9293 5.01219 41.8783 6.04857 41.8783 7.3166V11.2426C41.8783 12.5107 42.9293 13.547 44.2306 13.547H50.6243V12.023H44.2306C43.7927 12.023 43.4298 11.6694 43.4298 11.2426V9.63321H49.0603V8.10912H43.4298V7.3166C43.4298 6.88986 43.7927 6.53627 44.2306 6.53627Z" fill="#102438"/>
<path d="M57.6912 9.60882C57.929 9.58443 58.1542 9.52347 58.3669 9.42593C59.1802 9.06015 59.7432 8.25544 59.7432 7.32879C59.7432 6.69478 59.4805 6.12172 59.0551 5.70717C58.6297 5.29262 58.0416 5.03658 57.391 5.03658H51.8606V13.5714H53.4246V9.6454H54.9886C55.5517 9.6454 56.0396 9.93802 56.3149 10.377L56.3524 10.4501L57.1908 12.0473L57.9915 13.5714H59.7432L58.9425 12.0473L57.6912 9.60882ZM53.4246 8.13351V6.56066H57.391C57.6662 6.56066 57.8539 6.68259 57.954 6.78013C58.0416 6.86547 58.1917 7.06056 58.1917 7.34099C58.1917 7.6458 58.0041 7.92623 57.7163 8.04816C57.6162 8.09693 57.5036 8.12132 57.391 8.12132L53.4246 8.13351Z" fill="#102438"/>
<path d="M62.5769 13.547V5.01219H61.0128V13.547H62.5769Z" fill="#102438"/>
<path d="M66.188 5.01219C64.8867 5.01219 63.8357 6.04857 63.8357 7.3166V13.5349H65.3872V9.62101H71.0302V8.09693H65.3997V7.30441C65.3997 6.87767 65.7626 6.52408 66.2005 6.52408H72.5942V5L66.188 5.01219Z" fill="#102438"/>
<path d="M75.3945 13.547V5.01219H73.8305V13.547H75.3945Z" fill="#102438"/>
<path d="M80.895 6.53627H85.2743V5.01219H80.895C78.4801 5.01219 76.5157 6.92644 76.5157 9.27962C76.5157 11.6328 78.4801 13.547 80.895 13.547H85.2743V12.023H80.895C79.3435 12.023 78.0798 10.7915 78.0798 9.27962C78.0798 7.76773 79.3435 6.53627 80.895 6.53627Z" fill="#102438"/>
<path d="M94.1584 12.023L90.4923 5.01219L86.8263 12.023L86.0255 13.547H87.7772L88.578 12.023L90.4923 8.36517L92.4067 12.023L93.2075 13.547H94.9592L94.1584 12.023Z" fill="#102438"/>
<path d="M93.2342 5.02438V6.54847H96.8252V13.5592H98.3892V6.54847H101.98V5.02438H93.2342Z" fill="#102438"/>
<path d="M105.606 6.53627H112V5.01219H105.606C104.305 5.01219 103.254 6.04857 103.254 7.3166V11.2426C103.254 12.5107 104.305 13.547 105.606 13.547H112V12.023H105.606C105.168 12.023 104.805 11.6694 104.805 11.2426V9.63321H110.436V8.10912H104.805V7.3166C104.805 6.88986 105.168 6.53627 105.606 6.53627Z" fill="#102438"/>
<path d="M82.1964 16.4757V16.9372H81.271V19.7724H80.7825V16.9372H79.8571V16.4757H82.1964Z" fill="#102438" fill-opacity="0.58"/>
<path d="M83.3684 17.5306V18.0722H83.2979C83.0693 18.0722 82.8971 18.1319 82.7812 18.2512C82.6654 18.3673 82.6074 18.5526 82.6074 18.8069V19.7724H82.1471V17.5965H82.6074V18.0722H82.6168C82.6701 17.9058 82.7577 17.7739 82.8799 17.6766C83.0051 17.5793 83.157 17.5306 83.3355 17.5306H83.3684Z" fill="#102438" fill-opacity="0.58"/>
<path d="M84.4679 19.843C84.2362 19.843 84.0452 19.7677 83.8949 19.617C83.7477 19.4631 83.6741 19.2292 83.6741 18.9152V17.5965H84.1438V18.8681C84.1438 19.044 84.183 19.1758 84.2613 19.2637C84.3427 19.3517 84.4554 19.3956 84.5995 19.3956C84.9627 19.3956 85.1444 19.1429 85.1444 18.6374V17.5965H85.6047V19.7724H85.1444V19.4427H85.135C85.0034 19.7096 84.7811 19.843 84.4679 19.843Z" fill="#102438" fill-opacity="0.58"/>
<path d="M86.8418 19.843C86.5161 19.843 86.2218 19.7661 85.9587 19.6122L86.1654 19.2025C86.4034 19.3407 86.6336 19.4097 86.8559 19.4097C87.0814 19.4097 87.1941 19.3422 87.1941 19.2072C87.1941 19.1193 87.1174 19.0377 86.964 18.9623L86.5694 18.7692C86.2656 18.6248 86.1137 18.416 86.1137 18.1429C86.1137 17.9451 86.1811 17.7928 86.3157 17.686C86.4535 17.5793 86.643 17.5259 86.8841 17.5259C87.1346 17.5259 87.3851 17.5824 87.6357 17.6954L87.4478 18.0958C87.2286 18.0016 87.036 17.9545 86.87 17.9545C86.6915 17.9545 86.6023 18.0094 86.6023 18.1193C86.6023 18.1727 86.6195 18.2182 86.6539 18.2559C86.6915 18.2936 86.7573 18.3344 86.8512 18.3783L87.2552 18.5714C87.5433 18.7064 87.6873 18.9105 87.6873 19.1837C87.6873 19.4003 87.6106 19.5652 87.4572 19.6782C87.3069 19.7881 87.1017 19.843 86.8418 19.843Z" fill="#102438" fill-opacity="0.58"/>
<path d="M89.1403 17.9874H88.6988V19.1272C88.6988 19.2779 88.7739 19.3532 88.9242 19.3532H89.037V19.7771H88.8256C88.6346 19.7771 88.489 19.7284 88.3888 19.6311C88.2885 19.5338 88.2384 19.3956 88.2384 19.2166V17.9874H87.8533V17.5965H88.2384V16.7253H88.6988V17.5965H89.1403V17.9874Z" fill="#102438" fill-opacity="0.58"/>
<path d="M90.0544 19.2119V19.7724L89.7209 20.4458H89.4907L89.7397 19.7724H89.4954V19.2119H90.0544Z" fill="#102438" fill-opacity="0.58"/>
<path d="M93.7301 18.0204C93.9336 18.0518 94.0949 18.1397 94.2139 18.2841C94.3329 18.4286 94.3924 18.6122 94.3924 18.8352C94.3924 19.1303 94.2953 19.3611 94.1012 19.5275C93.9102 19.6907 93.6706 19.7724 93.3825 19.7724H92.0062V16.4757H93.2557C93.5438 16.4757 93.7755 16.551 93.9509 16.7017C94.1262 16.8524 94.2139 17.0565 94.2139 17.314C94.2139 17.4804 94.1716 17.6264 94.0871 17.752C94.0025 17.8776 93.8835 17.9639 93.7301 18.011V18.0204ZM93.1523 16.9372H92.4947V17.8509H93.11C93.4921 17.8509 93.6831 17.6986 93.6831 17.394C93.6831 17.2433 93.6346 17.1303 93.5375 17.0549C93.4436 16.9765 93.3152 16.9372 93.1523 16.9372ZM93.2838 19.3108C93.4655 19.3108 93.6064 19.2653 93.7066 19.1743C93.8099 19.0801 93.8616 18.956 93.8616 18.8022C93.8616 18.6484 93.8084 18.5259 93.7019 18.4349C93.5986 18.3407 93.4436 18.2936 93.2369 18.2936H92.4947V19.3108H93.2838Z" fill="#102438" fill-opacity="0.58"/>
<path d="M95.6333 19.843C95.4015 19.843 95.2105 19.7677 95.0602 19.617C94.913 19.4631 94.8394 19.2292 94.8394 18.9152V17.5965H95.3092V18.8681C95.3092 19.044 95.3483 19.1758 95.4266 19.2637C95.508 19.3517 95.6208 19.3956 95.7648 19.3956C96.1281 19.3956 96.3097 19.1429 96.3097 18.6374V17.5965H96.77V19.7724H96.3097V19.4427H96.3003C96.1688 19.7096 95.9464 19.843 95.6333 19.843Z" fill="#102438" fill-opacity="0.58"/>
<path d="M98.4111 17.9874H97.9696V19.1272C97.9696 19.2779 98.0447 19.3532 98.1951 19.3532H98.3078V19.7771H98.0964C97.9054 19.7771 97.7598 19.7284 97.6596 19.6311C97.5593 19.5338 97.5092 19.3956 97.5092 19.2166V17.9874H97.1241V17.5965H97.5092V16.7253H97.9696V17.5965H98.4111V17.9874Z" fill="#102438" fill-opacity="0.58"/>
<path d="M102.589 16.4757L101.396 19.7724H100.94L99.7469 16.4757H100.311L101.161 19.0754H101.175L102.025 16.4757H102.589Z" fill="#102438" fill-opacity="0.58"/>
<path d="M103.487 17.5259C103.812 17.5259 104.066 17.6311 104.248 17.8414C104.432 18.0487 104.525 18.3297 104.525 18.6845V18.7598H102.843C102.853 18.9513 102.917 19.1068 103.036 19.2261C103.158 19.3422 103.313 19.4003 103.501 19.4003C103.758 19.4003 103.98 19.2732 104.168 19.0188L104.492 19.325C104.241 19.6703 103.914 19.843 103.51 19.843C103.166 19.843 102.89 19.7378 102.683 19.5275C102.48 19.314 102.378 19.0345 102.378 18.6892C102.378 18.3501 102.477 18.0722 102.674 17.8556C102.874 17.6358 103.145 17.5259 103.487 17.5259ZM103.458 17.9498C103.299 17.9498 103.167 17.9906 103.064 18.0722C102.961 18.1538 102.895 18.2716 102.867 18.4254H104.027C104.017 18.2747 103.961 18.1586 103.858 18.0769C103.758 17.9922 103.624 17.9498 103.458 17.9498Z" fill="#102438" fill-opacity="0.58"/>
<path d="M106.167 17.5306V18.0722H106.097C105.868 18.0722 105.696 18.1319 105.58 18.2512C105.464 18.3673 105.406 18.5526 105.406 18.8069V19.7724H104.946V17.5965H105.406V18.0722H105.415C105.469 17.9058 105.556 17.7739 105.678 17.6766C105.804 17.5793 105.956 17.5306 106.134 17.5306H106.167Z" fill="#102438" fill-opacity="0.58"/>
<path d="M107.032 16.5228V17.0879H106.468V16.5228H107.032ZM106.52 19.7724V17.5965H106.98V19.7724H106.52Z" fill="#102438" fill-opacity="0.58"/>
<path d="M108.575 16.8571C108.312 16.8571 108.18 16.9984 108.18 17.281V17.5965H108.608V17.9874H108.18V19.7724H107.72V17.9874H107.377V17.5965H107.72V17.2951C107.72 17.0251 107.792 16.8132 107.936 16.6593C108.083 16.5055 108.29 16.4286 108.556 16.4286H108.645V16.8571H108.575Z" fill="#102438" fill-opacity="0.58"/>
<path d="M110.439 17.5965H110.946L109.593 20.7143H109.105L109.626 19.5746L108.715 17.5965H109.265L109.861 19.0236L110.439 17.5965Z" fill="#102438" fill-opacity="0.58"/>
<path d="M111.563 18.7739L111.45 16.4757H111.991L111.878 18.7739H111.563ZM112 19.2119V19.7724H111.441V19.2119H112Z" fill="#102438" fill-opacity="0.58"/>
</svg>
