<svg width="151" height="151" viewBox="0 0 151 151" fill="none" xmlns="http://www.w3.org/2000/svg">
<g clip-path="url(#clip0_367_56778)">
<path d="M131.09 25.5199C136.41 31.0199 140.49 37.3599 143.42 44.3899C154.61 71.2199 151.94 96.7599 134.83 120.17C123.68 135.43 108.24 144.74 89.5705 148.53C52.6405 156.03 14.9005 134.3 3.81049 98.2599C-4.42951 71.4899 0.690487 46.9799 18.9105 25.4399C23.9305 29.0999 28.2605 33.4299 31.9205 38.4499C30.5105 41.0999 28.4705 43.3199 26.9205 45.8899C14.4405 66.5099 16.4305 92.7199 32.0105 111.14C41.8805 122.8 54.4205 129.23 69.6605 130.98C97.5805 134.18 124.83 114.1 130.06 86.6199C133.27 69.7799 129.89 54.3999 119.61 40.5999C119.11 39.9299 118.58 39.2899 118.42 38.4399C118.31 37.5199 118.85 36.8799 119.43 36.2899C122.72 32.9499 126.04 29.6299 129.38 26.3399C129.85 25.8899 130.34 25.4099 131.09 25.5199Z" fill="#061936"/>
<path d="M131.091 25.5201C126.941 29.7001 122.781 33.8801 118.631 38.0601C117.321 38.6001 116.881 37.4201 116.271 36.7701C109.061 29.1501 100.391 23.8501 90.3609 21.0101C77.0709 17.2501 64.0509 18.3201 51.4609 24.1501C44.6509 27.3001 38.7109 31.6001 33.6809 37.1701C33.1509 37.7601 32.6209 38.5301 31.6009 38.1101C27.3709 33.8901 23.1509 29.6701 18.9209 25.4501C26.2409 17.0301 35.1109 10.6701 45.2709 6.24013C56.0909 1.53013 67.5109 -0.629869 79.3009 0.160131C97.3309 1.38013 113.111 8.13013 126.361 20.5101C128.041 22.0701 130.051 23.3501 131.091 25.5201Z" fill="#061936"/>
<path d="M31.5905 38.1202C32.7305 37.6502 33.2505 36.5302 34.0605 35.7202C45.4305 24.2402 59.2205 18.1302 75.3405 18.2402C91.9205 18.3502 105.96 24.8402 117.3 37.0202C117.69 37.4402 117.98 37.9802 118.63 38.0602C121.92 42.6402 125.15 47.2602 127.32 52.5302C130.13 59.3402 131.62 66.3502 131.82 73.7702C132.15 85.7902 129.09 96.7302 122.41 106.62C113.58 119.68 101.37 127.97 85.9005 130.94C69.2305 134.15 53.8305 130.5 40.3905 120.17C28.2605 110.85 20.8505 98.4202 18.7805 83.1302C16.5205 66.4902 20.6805 51.5802 31.4005 38.5702C31.5005 38.4502 31.5305 38.2702 31.5905 38.1202Z" fill="#3E62AE"/>
<path d="M112.32 75.8304C112.32 81.2704 111.43 86.5804 110.22 91.8504C109.8 93.6704 108.55 94.6704 106.79 95.0204C104.91 95.4004 103.32 94.8404 102.22 93.2204C101.5 92.1604 101.3 91.0404 101.52 89.7004C102.3 85.0404 103.31 80.4204 103.26 75.6504C103.13 64.4704 98.2503 55.9004 88.6603 50.4804C79.2703 45.1904 69.4403 45.5304 60.2503 51.0904C51.9803 56.0904 47.8003 63.9104 46.8103 73.4804C46.4703 76.7704 44.7903 78.3104 41.9003 78.1604C39.2203 78.0204 37.5603 76.0104 37.8003 72.7204C38.4903 63.1504 42.2603 54.8704 49.1703 48.2404C64.3403 33.6804 87.8803 34.2704 102.31 49.5704C109.2 56.8804 112.47 65.7504 112.32 75.8304Z" fill="white"/>
<path d="M95.9301 76.4102C95.2601 92.2502 89.0801 104.56 78.0101 114.52C76.5401 115.84 74.9901 116.98 72.8901 116.3C69.4101 115.19 68.4801 111.16 71.1101 108.51C72.9201 106.68 74.9401 105.08 76.6001 103.08C83.4001 94.9102 86.8401 85.5502 86.7801 74.9302C86.7401 68.4802 81.6701 63.3602 75.3101 63.2802C68.8001 63.1902 63.4601 68.2202 63.2501 74.6902C63.0001 82.6602 59.4401 88.6402 52.4501 92.4902C49.7301 93.9902 46.7401 94.6702 43.6001 94.5402C41.0801 94.4402 39.3101 92.8202 39.1901 90.4402C39.0601 87.8702 40.6301 85.6502 43.1401 85.6002C50.2001 85.4702 54.2301 80.0002 54.3101 73.2802C54.4201 64.2502 62.5901 56.0502 71.5701 54.4402C81.7801 52.6002 92.9801 59.3602 95.4901 70.5802C95.9801 72.7802 96.0501 75.0202 95.9301 76.4102Z" fill="white"/>
<path d="M79.6405 76.0306C78.6405 90.7006 71.5505 101.321 58.3905 107.881C55.7505 109.191 53.1905 108.491 51.9105 106.201C50.5905 103.841 51.2705 101.401 54.0805 99.9806C59.6305 97.1706 64.2605 93.4706 67.2105 87.8706C69.0005 84.4606 70.2205 80.9006 70.3305 77.0006C70.3705 75.5906 70.4305 74.1206 71.2105 72.9406C72.3905 71.1506 74.0405 70.0906 76.3005 70.8206C78.5305 71.5206 79.7805 73.5306 79.6405 76.0306Z" fill="white"/>
</g>
<defs>
<clipPath id="clip0_367_56778">
<rect width="150.17" height="150.01" fill="white"/>
</clipPath>
</defs>
</svg>
