<svg width="691" height="153" viewBox="0 0 691 153" fill="none" xmlns="http://www.w3.org/2000/svg">
<g clip-path="url(#clip0_433_1761)">
<path d="M50.4223 126.109C40.4473 108.874 30.4614 91.6376 20.4973 74.3961C15.19 65.2143 9.85547 56.0544 4.62474 46.8285C-1.322 36.3538 -1.74287 25.6426 4.57555 15.2944C11.0361 4.71515 20.6558 -0.615727 33.1779 0.0554458C38.2665 0.330517 42.8741 2.23401 47.274 4.77016C59.9819 12.0871 72.7281 19.3379 85.4578 26.6108C86.3214 27.1059 87.1522 27.7056 88.2071 27.7221C92.525 30.2637 96.8648 32.8329 101.483 34.7144C108.015 37.3771 114.454 36.5739 120.696 33.2675C131.397 27.5901 142.165 22.0336 152.949 16.5102C154.026 15.9601 155.436 14.6782 156.381 15.707C157.447 16.8678 155.851 18.0066 155.157 18.9473C145.882 31.5236 136.486 44.0008 127.162 56.5385C126.178 57.8589 125.238 59.2067 124.297 60.5601C119.881 66.9197 114.12 71.1998 106.353 72.4266C97.3185 73.2353 90.4207 68.141 83.195 63.9379C68.6123 55.4603 54.0078 47.0211 39.4416 38.5214C38.2719 37.8392 37.0585 37.2285 35.1237 36.4418C50.8869 63.1017 66.1801 89.2775 81.7684 115.277C80.5824 117.439 78.5709 118.749 76.647 120.085C70.5855 124.278 64.2671 127.782 56.5112 127.353C54.3959 127.226 52.3627 126.99 50.4223 126.109Z" fill="#1D9DF8"/>
<path d="M106.112 72.1673C107.217 71.0175 108.752 71.0616 110.135 70.726C116.415 69.2076 120.367 64.6744 123.996 59.8056C134.731 45.4194 145.406 30.9947 156.102 16.5755C156.201 16.4379 156.223 16.2454 156.305 16.0143C155.293 15.7063 154.605 16.4269 153.867 16.8065C142.974 22.4345 132.015 27.9359 121.242 33.7949C112.169 38.7297 103.647 37.4479 95.1864 32.4636C93.1477 31.2643 91.0215 30.219 88.9445 29.0912C88.4143 28.8051 87.6765 28.6071 88.2121 27.7269C98.6408 20.7126 109.102 13.7423 119.498 6.67293C128.615 0.472826 138.196 -0.737486 148.084 4.31832C158.152 9.46215 163.465 18.0609 163.973 29.3773C164.208 34.5541 162.639 39.4614 160.016 44.0056C141.897 75.3857 123.614 106.672 105.806 138.228C96.5583 154.612 75.4168 157.665 62.37 145.903C60.0416 143.801 58.145 141.348 56.6966 138.575C54.5485 134.454 52.5098 130.273 50.4219 126.12C52.1545 125.427 53.6904 126.571 55.352 126.692C63.4632 127.286 70.1314 123.837 76.4443 119.353C78.2699 118.055 79.8714 116.443 81.5767 114.979C82.7081 111.48 85.1294 108.708 86.8457 105.528C92.5137 95.0147 98.4385 84.6446 104.194 74.1809C104.642 73.3556 104.773 72.1508 106.112 72.1673Z" fill="#0F5CE8"/>
</g>
<path d="M242.968 29.1L238.04 38.725L226.259 61.825L214.478 38.725L209.55 29.1H198.77L203.698 38.725L226.259 83L248.82 38.725L253.748 29.1H242.968ZM269.641 38.725H308.988V29.1H269.641C261.633 29.1 255.165 35.645 255.165 43.653V68.447C255.165 76.455 261.633 83 269.641 83H308.988V73.375H269.641C266.946 73.375 264.713 71.142 264.713 68.447V58.283H299.363V48.658H264.713V43.653C264.713 40.958 266.946 38.725 269.641 38.725ZM352.478 58.129C353.941 57.975 355.327 57.59 356.636 56.974C361.641 54.664 365.106 49.582 365.106 43.73C365.106 39.726 363.489 36.107 360.871 33.489C358.253 30.871 354.634 29.254 350.63 29.254H316.596V83.154H326.221V58.36H335.846C339.311 58.36 342.314 60.208 344.008 62.98L344.239 63.442L349.398 73.529L354.326 83.154H365.106L360.178 73.529L352.478 58.129ZM326.221 48.812V38.879H350.63C352.324 38.879 353.479 39.649 354.095 40.265C354.634 40.804 355.558 42.036 355.558 43.807C355.558 45.732 354.403 47.503 352.632 48.273C352.016 48.581 351.323 48.735 350.63 48.735L326.221 48.812ZM382.544 83V29.1H372.919V83H382.544ZM404.767 29.1C396.759 29.1 390.291 35.645 390.291 43.653V82.923H399.839V58.206H434.566V48.581H399.916V43.576C399.916 40.881 402.149 38.648 404.844 38.648H444.191V29.023L404.767 29.1ZM461.424 83V29.1H451.799V83H461.424ZM495.274 38.725H522.224V29.1H495.274C480.413 29.1 468.324 41.189 468.324 56.05C468.324 70.911 480.413 83 495.274 83H522.224V73.375H495.274C485.726 73.375 477.949 65.598 477.949 56.05C477.949 46.502 485.726 38.725 495.274 38.725ZM576.897 73.375L554.336 29.1L531.775 73.375L526.847 83H537.627L542.555 73.375L554.336 50.275L566.117 73.375L571.045 83H581.825L576.897 73.375ZM571.209 29.177V38.802H593.308V83.077H602.933V38.802H625.032V29.177H571.209ZM647.347 38.725H686.694V29.1H647.347C639.339 29.1 632.871 35.645 632.871 43.653V68.447C632.871 76.455 639.339 83 647.347 83H686.694V73.375H647.347C644.652 73.375 642.419 71.142 642.419 68.447V58.283H677.069V48.658H642.419V43.653C642.419 40.958 644.652 38.725 647.347 38.725Z" fill="white"/>
<path d="M503.732 100.7V103.542H498.019V121H495.003V103.542H489.29V100.7H503.732ZM510.968 107.196V110.531H510.533C509.121 110.531 508.058 110.898 507.343 111.633C506.627 112.348 506.27 113.489 506.27 115.055V121H503.428V107.602H506.27V110.531H506.328C506.656 109.506 507.198 108.694 507.952 108.095C508.725 107.496 509.663 107.196 510.765 107.196H510.968ZM517.756 121.435C516.325 121.435 515.146 120.971 514.218 120.043C513.309 119.096 512.855 117.655 512.855 115.722V107.602H515.755V115.432C515.755 116.515 515.996 117.327 516.48 117.868C516.982 118.409 517.678 118.68 518.568 118.68C520.81 118.68 521.932 117.124 521.932 114.011V107.602H524.774V121H521.932V118.97H521.874C521.062 120.613 519.689 121.435 517.756 121.435ZM532.411 121.435C530.401 121.435 528.583 120.961 526.959 120.014L528.235 117.491C529.705 118.342 531.126 118.767 532.498 118.767C533.89 118.767 534.586 118.351 534.586 117.52C534.586 116.979 534.113 116.476 533.165 116.012L530.729 114.823C528.854 113.934 527.916 112.648 527.916 110.966C527.916 109.748 528.332 108.81 529.163 108.153C530.014 107.496 531.184 107.167 532.672 107.167C534.219 107.167 535.766 107.515 537.312 108.211L536.152 110.676C534.799 110.096 533.61 109.806 532.585 109.806C531.483 109.806 530.932 110.144 530.932 110.821C530.932 111.15 531.039 111.43 531.251 111.662C531.483 111.894 531.889 112.145 532.469 112.416L534.963 113.605C536.742 114.436 537.631 115.693 537.631 117.375C537.631 118.709 537.158 119.724 536.21 120.42C535.282 121.097 534.016 121.435 532.411 121.435ZM546.602 110.009H543.876V117.027C543.876 117.955 544.34 118.419 545.268 118.419H545.964V121.029H544.659C543.479 121.029 542.58 120.729 541.962 120.13C541.343 119.531 541.034 118.68 541.034 117.578V110.009H538.656V107.602H541.034V102.237H543.876V107.602H546.602V110.009ZM552.245 117.549V121L550.186 125.147H548.765L550.302 121H548.794V117.549H552.245ZM574.938 110.212C576.194 110.405 577.19 110.947 577.925 111.836C578.659 112.725 579.027 113.856 579.027 115.229C579.027 117.046 578.427 118.467 577.229 119.492C576.049 120.497 574.57 121 572.792 121H564.295V100.7H572.009C573.787 100.7 575.218 101.164 576.301 102.092C577.383 103.02 577.925 104.277 577.925 105.862C577.925 106.887 577.664 107.786 577.142 108.559C576.62 109.332 575.885 109.864 574.938 110.154V110.212ZM571.371 103.542H567.311V109.168H571.11C573.468 109.168 574.648 108.23 574.648 106.355C574.648 105.427 574.348 104.731 573.749 104.267C573.169 103.784 572.376 103.542 571.371 103.542ZM572.183 118.158C573.304 118.158 574.174 117.878 574.793 117.317C575.431 116.737 575.75 115.973 575.75 115.026C575.75 114.079 575.421 113.325 574.764 112.764C574.126 112.184 573.169 111.894 571.893 111.894H567.311V118.158H572.183ZM586.687 121.435C585.257 121.435 584.077 120.971 583.149 120.043C582.241 119.096 581.786 117.655 581.786 115.722V107.602H584.686V115.432C584.686 116.515 584.928 117.327 585.411 117.868C585.914 118.409 586.61 118.68 587.499 118.68C589.742 118.68 590.863 117.124 590.863 114.011V107.602H593.705V121H590.863V118.97H590.805C589.993 120.613 588.621 121.435 586.687 121.435ZM603.837 110.009H601.111V117.027C601.111 117.955 601.575 118.419 602.503 118.419H603.199V121.029H601.894C600.715 121.029 599.816 120.729 599.197 120.13C598.578 119.531 598.269 118.68 598.269 117.578V110.009H595.891V107.602H598.269V102.237H601.111V107.602H603.837V110.009ZM629.628 100.7L622.262 121H619.449L612.083 100.7H615.563L620.812 116.708H620.899L626.148 100.7H629.628ZM635.172 107.167C637.183 107.167 638.749 107.815 639.87 109.11C641.011 110.386 641.581 112.116 641.581 114.301V114.765H631.199C631.257 115.944 631.653 116.901 632.388 117.636C633.142 118.351 634.099 118.709 635.259 118.709C636.844 118.709 638.217 117.926 639.377 116.36L641.378 118.245C639.831 120.372 637.811 121.435 635.317 121.435C633.19 121.435 631.489 120.787 630.213 119.492C628.956 118.177 628.328 116.457 628.328 114.33C628.328 112.242 628.937 110.531 630.155 109.197C631.392 107.844 633.065 107.167 635.172 107.167ZM634.998 109.777C634.012 109.777 633.2 110.028 632.562 110.531C631.924 111.034 631.518 111.759 631.344 112.706H638.507C638.449 111.778 638.101 111.063 637.463 110.56C636.844 110.038 636.023 109.777 634.998 109.777ZM651.719 107.196V110.531H651.284C649.873 110.531 648.81 110.898 648.094 111.633C647.379 112.348 647.021 113.489 647.021 115.055V121H644.179V107.602H647.021V110.531H647.079C647.408 109.506 647.949 108.694 648.703 108.095C649.477 107.496 650.414 107.196 651.516 107.196H651.719ZM657.058 100.99V104.47H653.578V100.99H657.058ZM653.897 121V107.602H656.739V121H653.897ZM666.585 103.049C664.961 103.049 664.149 103.919 664.149 105.659V107.602H666.788V110.009H664.149V121H661.307V110.009H659.19V107.602H661.307V105.746C661.307 104.083 661.752 102.778 662.641 101.831C663.55 100.884 664.826 100.41 666.469 100.41H667.02V103.049H666.585ZM678.093 107.602H681.225L672.873 126.8H669.857L673.076 119.782L667.45 107.602H670.843L674.526 116.389L678.093 107.602ZM685.034 114.852L684.338 100.7H687.673L686.977 114.852H685.034ZM687.731 117.549V121H684.28V117.549H687.731Z" fill="white" fill-opacity="0.58"/>
<defs>
<clipPath id="clip0_433_1761">
<rect width="164" height="153" fill="white"/>
</clipPath>
</defs>
</svg>
